<svg width="42" height="42" viewBox="0 0 42 42" fill="none" xmlns="http://www.w3.org/2000/svg">
<path d="M5.25 5.25H36.75C37.2141 5.25 37.6592 5.43437 37.9874 5.76256C38.3156 6.09075 38.5 6.53587 38.5 7V35C38.5 35.4641 38.3156 35.9093 37.9874 36.2374C37.6592 36.5656 37.2141 36.75 36.75 36.75H5.25C4.78587 36.75 4.34075 36.5656 4.01256 36.2374C3.68437 35.9093 3.5 35.4641 3.5 35V7C3.5 6.53587 3.68437 6.09075 4.01256 5.76256C4.34075 5.43437 4.78587 5.25 5.25 5.25ZM14.875 24.5V28H19.25V31.5H22.75V28H24.5C25.6603 28 26.7731 27.5391 27.5936 26.7186C28.4141 25.8981 28.875 24.7853 28.875 23.625C28.875 22.4647 28.4141 21.3519 27.5936 20.5314C26.7731 19.7109 25.6603 19.25 24.5 19.25H17.5C17.2679 19.25 17.0454 19.1578 16.8813 18.9937C16.7172 18.8296 16.625 18.6071 16.625 18.375C16.625 18.1429 16.7172 17.9204 16.8813 17.7563C17.0454 17.5922 17.2679 17.5 17.5 17.5H27.125V14H22.75V10.5H19.25V14H17.5C16.3397 14 15.2269 14.4609 14.4064 15.2814C13.5859 16.1019 13.125 17.2147 13.125 18.375C13.125 19.5353 13.5859 20.6481 14.4064 21.4686C15.2269 22.2891 16.3397 22.75 17.5 22.75H24.5C24.7321 22.75 24.9546 22.8422 25.1187 23.0063C25.2828 23.1704 25.375 23.3929 25.375 23.625C25.375 23.8571 25.2828 24.0796 25.1187 24.2437C24.9546 24.4078 24.7321 24.5 24.5 24.5H14.875Z" fill="#BEBEBE"/>
</svg>
