<svg width="42" height="42" viewBox="0 0 42 42" fill="none" xmlns="http://www.w3.org/2000/svg">
<path d="M10.5 29.75C10.5 26.25 17.5 24.325 21 24.325C24.5 24.325 31.5 26.25 31.5 29.75V31.5H10.5V29.75ZM26.25 15.75C26.25 17.1424 25.6969 18.4777 24.7123 19.4623C23.7277 20.4469 22.3924 21 21 21C19.6076 21 18.2723 20.4469 17.2877 19.4623C16.3031 18.4777 15.75 17.1424 15.75 15.75C15.75 14.3576 16.3031 13.0223 17.2877 12.0377C18.2723 11.0531 19.6076 10.5 21 10.5C22.3924 10.5 23.7277 11.0531 24.7123 12.0377C25.6969 13.0223 26.25 14.3576 26.25 15.75ZM5.25 8.75V33.25C5.25 34.1783 5.61875 35.0685 6.27513 35.7249C6.9315 36.3813 7.82174 36.75 8.75 36.75H33.25C34.1783 36.75 35.0685 36.3813 35.7249 35.7249C36.3813 35.0685 36.75 34.1783 36.75 33.25V8.75C36.75 7.82174 36.3813 6.9315 35.7249 6.27513C35.0685 5.61875 34.1783 5.25 33.25 5.25H8.75C7.82174 5.25 6.9315 5.61875 6.27513 6.27513C5.61875 6.9315 5.25 7.82174 5.25 8.75Z" fill="#BEBEBE"/>
</svg>
