<svg width="42" height="42" viewBox="0 0 42 42" fill="none" xmlns="http://www.w3.org/2000/svg">
<path d="M33.25 5.25C34.1783 5.25 35.0685 5.61875 35.7249 6.27513C36.3813 6.9315 36.75 7.82174 36.75 8.75V33.25C36.75 34.1783 36.3813 35.0685 35.7249 35.7249C35.0685 36.3813 34.1783 36.75 33.25 36.75H8.75C7.82174 36.75 6.9315 36.3813 6.27513 35.7249C5.61875 35.0685 5.25 34.1783 5.25 33.25V8.75C5.25 7.82174 5.61875 6.9315 6.27513 6.27513C6.9315 5.61875 7.82174 5.25 8.75 5.25H33.25ZM27.265 29.75L25.6025 22.61L31.1325 17.8325L23.835 17.2025L21 10.5L18.165 17.22L10.8675 17.85L16.3975 22.6275L14.735 29.75L21 25.97L27.265 29.75Z" fill="#BEBEBE"/>
</svg>
