<svg width="68" height="68" viewBox="0 0 68 68" fill="none" xmlns="http://www.w3.org/2000/svg">
<mask id="mask0" mask-type="alpha" maskUnits="userSpaceOnUse" x="0" y="0" width="68" height="68">
<g clip-path="url(#clip0)">
<path d="M25.4999 0V8.5H19.1249C13.3449 8.5 8.49995 13.345 8.49995 19.125V23.375C8.49995 29.155 12.2399 33.915 17.7649 35.36L39.5249 40.97C40.7149 41.31 42.4149 43.435 42.4149 44.71V48.96C42.4149 50.15 41.4799 51.085 40.2899 51.085H19.0399C18.3016 51.0821 17.5741 50.9075 16.9149 50.575V42.585H8.41495V51.085C8.41495 53.975 10.1149 56.44 12.1549 57.715C14.1099 59.075 16.5749 59.585 19.0399 59.585H25.4149V68.085H33.9149V59.585H40.2899C46.1549 59.585 50.9149 54.825 50.9149 48.96V44.71C50.9149 38.93 47.1749 34.17 41.6499 32.725L19.8899 27.115C18.6999 26.775 16.9999 24.65 16.9999 23.375V19.125C16.9999 17.935 17.9349 17 19.1249 17H40.3749C41.3099 17 42.16 17.34 42.5 17.51V25.5H51V17C51 14.11 49.2999 11.645 47.2599 10.37C45.3049 9.01 42.8399 8.5 40.3749 8.5H33.9999V0H25.4999Z" fill="black"/>
</g>
</mask>
<g mask="url(#mask0)">
<rect x="13" y="10" width="150" height="80" rx="4" fill="url(#paint0_linear)" fill-opacity="0.1"/>
</g>
<defs>
<linearGradient id="paint0_linear" x1="243.735" y1="57.2727" x2="193.73" y2="-65.1434" gradientUnits="userSpaceOnUse">
<stop offset="0.255076" stop-color="#282840"/>
<stop offset="1" stop-color="#A8B15E"/>
</linearGradient>
<clipPath id="clip0">
<rect width="68" height="68" fill="white"/>
</clipPath>
</defs>
</svg>
