<svg width="20" height="20" viewBox="0 0 16 16" fill="none" xmlns="http://www.w3.org/2000/svg">
<g clip-path="url(#clip0)">
<path d="M9.5 13.5H13.5C13.9942 13.5 14.4142 13.3885 14.763 13.1943L9.5 10.0548V13.5Z" fill="#2E3192"/>
<path d="M15.915 11.5525C15.972 11.2982 16.001 11.029 16.001 10.7498V9.49975H12.4735L15.914 11.5525" fill="#2E3192"/>
<path d="M0.0874992 4.43975C0.0282501 4.70573 -0.00109861 4.9775 -8.27959e-07 5.25V6.5H3.541L0.0874992 4.43975Z" fill="#2E3192"/>
<path d="M6.5 2.5H2.5C2.00925 2.5 1.592 2.61 1.24475 2.8015L6.5 5.9365V2.5Z" fill="#2E3192"/>
<path d="M1.26075 13.2065C1.60475 13.3925 2.0165 13.5 2.5 13.5H6.5V10.081L1.26075 13.2065Z" fill="#2E3192"/>
<path d="M0 9.5V10.75C0 11.0378 0.0305 11.315 0.09075 11.5758L3.5705 9.5H0Z" fill="#2E3192"/>
<path d="M14.7788 2.81375C14.4273 2.61425 14.0015 2.5 13.5 2.5H9.5V5.96275L14.7788 2.81375V2.81375Z" fill="#2E3192"/>
<path d="M16 6.5V5.25C16 4.9765 15.9717 4.71275 15.917 4.46325L12.503 6.5H16Z" fill="#2E3192"/>
<path d="M12.503 6.5L15.917 4.46325C15.7605 3.74725 15.3795 3.1545 14.7788 2.81375L9.5 5.96275V2.5H9V7H16V6.5H12.503Z" fill="#E6E7E8"/>
<path d="M0 9V9.5H3.5705L0.09075 11.5758C0.256 12.2895 0.6485 12.8755 1.26075 13.2065L6.5 10.081V13.5H7V9H0Z" fill="#E6E7E8"/>
<path d="M16 9H9V13.5H9.5V10.0548L14.763 13.1945C15.3682 12.8575 15.754 12.268 15.914 11.553L12.4735 9.5H16V9Z" fill="#E6E7E8"/>
<path d="M6.5 2.5V5.9365L1.24475 2.8015C0.63725 3.1365 0.249 3.725 0.08725 4.43975L3.541 6.5H0V7H7V2.5H6.5Z" fill="#E6E7E8"/>
<path d="M9 7V2.5H7V7H0V9H7V13.5H9V9H16V7H9Z" fill="#BE1E2D"/>
<path d="M5.4845 6.5L0.471995 3.50775C0.364245 3.66775 0.277745 3.84375 0.206245 4.03125L4.343 6.5H5.48375" fill="#BE1E2D"/>
<path d="M15.7725 12.0225L11.5693 9.5H10.4053L15.4835 12.5548C15.6013 12.3902 15.6983 12.2118 15.7725 12.0235" fill="#BE1E2D"/>
<path d="M15.1797 3.09775L9.49225 6.5L10.647 6.50075L15.5547 3.5625C15.4452 3.36325 15.3297 3.23475 15.1797 3.09775Z" fill="#BE1E2D"/>
<path d="M0.453247 12.4688C0.565705 12.64 0.70104 12.7951 0.855497 12.9298L6.51575 9.5H5.375L0.453247 12.4688Z" fill="#BE1E2D"/>
</g>
<defs>
<clipPath id="clip0">
<rect width="16" height="16" fill="white"/>
</clipPath>
</defs>
</svg>
