<svg width="20" height="20" viewBox="0 0 20 20" fill="none" xmlns="http://www.w3.org/2000/svg">
<path d="M17.9033 5.93741L10.385 1.77075C10.2614 1.70268 10.1227 1.66699 9.98164 1.66699C9.84059 1.66699 9.70184 1.70268 9.57831 1.77075L2.09664 5.90408C1.96667 5.97605 1.8583 6.08146 1.78276 6.20939C1.70722 6.33731 1.66725 6.48311 1.66699 6.63168C1.66674 6.78025 1.70621 6.92618 1.78131 7.05437C1.85641 7.18255 1.96442 7.28833 2.09414 7.36075L9.61247 11.5607C9.73625 11.6303 9.87581 11.6669 10.0178 11.667C10.1598 11.6672 10.2994 11.6309 10.4233 11.5616L17.905 7.39491C18.0349 7.32264 18.1432 7.2169 18.2185 7.08866C18.2938 6.96043 18.3335 6.81439 18.3333 6.66567C18.3331 6.51696 18.2932 6.371 18.2175 6.24294C18.1419 6.11489 18.0334 6.00939 17.9033 5.93741Z" fill="#BEBEBE"/>
<path d="M10 13.2134L2.9042 9.27173L2.09503 10.7284L9.59503 14.8951C9.7188 14.9638 9.85804 14.9999 9.99962 14.9999C10.1412 14.9999 10.2804 14.9638 10.4042 14.8951L17.9042 10.7284L17.095 9.27173L10 13.2134Z" fill="#BEBEBE"/>
<path d="M10 16.5466L2.9042 12.605L2.09503 14.0616L9.59503 18.2283C9.7188 18.297 9.85804 18.3331 9.99962 18.3331C10.1412 18.3331 10.2804 18.297 10.4042 18.2283L17.9042 14.0616L17.095 12.605L10 16.5466Z" fill="#BEBEBE"/>
</svg>
