<svg width="91" height="91" viewBox="0 0 91 91" fill="#161625" xmlns="http://www.w3.org/2000/svg">
  <path d="M74.364 41.3588H70.2228V24.8117C70.2228 11.1084 59.1144 0 45.4111 0C31.7078 0 20.5994 11.1084 20.5994 24.8117V41.3588H16.4582C14.1832 41.3588 12.317 43.2072 12.317 45.5V86.8588C12.317 89.1516 14.1654 91 16.4582 91H74.364C76.639 91 78.5052 89.1516 78.5052 86.8588V45.5C78.5052 43.2072 76.639 41.3588 74.364 41.3588ZM61.9582 41.3588H28.864V24.8117C28.864 15.6762 36.2755 8.26465 45.4111 8.26465C54.5466 8.26465 61.9582 15.6762 61.9582 24.8117V41.3588Z" />
</svg>
