<svg width="24" height="24" viewBox="0 0 24 24" fill="none" xmlns="http://www.w3.org/2000/svg">
<g clip-path="url(#clip0)">
<path d="M11.979 0C5.67823 0 0.509979 4.85925 0.0217285 11.0355L6.45148 13.6957C7.01557 13.311 7.68268 13.1056 8.36548 13.1063C8.42773 13.1062 8.49073 13.11 8.55298 13.11L11.4127 8.96925V8.91075C11.4127 6.41475 13.44 4.3875 15.936 4.3875C18.432 4.3875 20.463 6.4185 20.463 8.9145C20.4614 10.1143 19.9838 11.2645 19.1351 12.1125C18.2863 12.9605 17.1358 13.4372 15.936 13.4377H15.8347L11.7562 16.3478C11.7562 16.4025 11.76 16.4535 11.76 16.5082C11.76 18.3832 10.2442 19.9028 8.36923 19.9028C6.73648 19.9028 5.35348 18.7305 5.03698 17.1765L0.435728 15.27C1.86148 20.3092 6.48298 24.0007 11.979 24.0007C18.6037 24.0007 23.9752 18.63 23.9752 12.0007C23.9752 5.3715 18.6045 0.00075 11.979 0.00075V0ZM7.53748 18.2108L6.06448 17.601C6.33575 18.1646 6.80397 18.6093 7.38073 18.8512C8.00502 19.1097 8.70632 19.1101 9.33093 18.8524C9.95554 18.5948 10.4525 18.1 10.713 17.4765C10.8422 17.1679 10.9091 16.8368 10.9097 16.5023C10.9103 16.1677 10.8448 15.8363 10.7167 15.5272C10.5904 15.2165 10.4034 14.9342 10.1665 14.6967C9.9297 14.4592 9.64784 14.2714 9.33748 14.1442C8.73948 13.8945 8.06853 13.8832 7.46248 14.1127L8.98198 14.742C9.93898 15.144 10.392 16.242 9.99373 17.199C9.59548 18.156 8.49373 18.609 7.53673 18.2108H7.53748ZM18.9517 8.90625C18.9509 8.10732 18.6335 7.34128 18.0689 6.77599C17.5043 6.21071 16.7387 5.89229 15.9397 5.8905C15.1399 5.8905 14.3728 6.20823 13.8073 6.77379C13.2417 7.33936 12.924 8.10642 12.924 8.90625C12.924 9.70608 13.2417 10.4731 13.8073 11.0387C14.3728 11.6043 15.1399 11.922 15.9397 11.922C16.7388 11.9208 17.5048 11.6026 18.0695 11.0372C18.6343 10.4718 18.9515 9.70537 18.9517 8.90625ZM13.6822 8.9025C13.6822 7.6485 14.694 6.63675 15.9442 6.63675C17.1945 6.63675 18.2137 7.6485 18.2137 8.9025C18.2137 10.1528 17.1945 11.1683 15.9442 11.1683C14.694 11.1683 13.6822 10.1528 13.6822 8.9025Z" fill="white"/>
</g>
<defs>
<clipPath id="clip0">
<rect width="24" height="24" fill="white"/>
</clipPath>
</defs>
</svg>
